<svg id="Layer_1" data-name="Layer 1" xmlns="http://www.w3.org/2000/svg" viewBox="0 0 155.03 55.4"><defs><style>.cls-1{fill:#54a4d9;}.cls-2{fill:#231f20;}</style></defs><title>Folo Horizontal</title><path class="cls-1" d="M199.42,138.64a3.76,3.76,0,0,0-2.6-1c-.16,0-.3,0-.4,0l-.14,0-8.45-.89-.3,0c-4-.6-8.05-1.22-12.14-1.91a1.21,1.21,0,0,0-1.41,1.06c-.45,4.11-1,8.2-1.48,12.16l-1.5,8.71a1.23,1.23,0,0,0,0,.14,3.89,3.89,0,0,1-.06.39,3.76,3.76,0,0,0,.23,2.77,2.06,2.06,0,0,0,1.31.85,2.17,2.17,0,0,0,.43,0,2,2,0,0,0,1.11-.32c1.92-1.28,4.13-8.83,4.55-10.31l2.1-7,7.33-.1c1.55,0,9.42-.05,11.18-1.56a2.11,2.11,0,0,0,.23-2.9Z" transform="translate(-166.85 -134.6)"/><path class="cls-2" d="M228.36,142.67a3.76,3.76,0,0,0-2.6-1c-.16,0-.3,0-.4,0l-.14,0-8.45-.89-.3,0c-4-.6-8.05-1.22-12.14-1.91a1.22,1.22,0,0,0-1.41,1.06c-.46,4.12-1,8.23-1.48,12.21L200,160.71a1.37,1.37,0,0,0,0,.14,3.87,3.87,0,0,1-.06.39,3.76,3.76,0,0,0,.23,2.77,2.09,2.09,0,0,0,1.74.9,2,2,0,0,0,1.11-.33c1.92-1.28,4.13-8.83,4.55-10.31l2.1-7,7.33-.1c1.55,0,9.42-.05,11.18-1.56a2.11,2.11,0,0,0,.23-2.9Z" transform="translate(-166.85 -134.6)"/><path class="cls-2" d="M192.88,166.53c-.16,0-.3,0-.4,0l-.14,0-8.45-.89-.25,0c-4-.6-8.08-1.22-12.18-1.91a1.21,1.21,0,0,0-1.41,1.06c-.45,4.11-1,8.21-1.48,12.17l-1.49,8.7a1.23,1.23,0,0,0,0,.14,3.89,3.89,0,0,1-.06.39,3.76,3.76,0,0,0,.23,2.77h0a2.1,2.1,0,0,0,1.74.9,2,2,0,0,0,1.11-.33c1.92-1.28,4.13-8.83,4.55-10.31l2.1-7,7.33-.1c1.57,0,9.43-.06,11.18-1.56a2.11,2.11,0,0,0,.23-2.9A3.77,3.77,0,0,0,192.88,166.53Z" transform="translate(-166.85 -134.6)"/><path class="cls-2" d="M259.45,190V178.41h3l2,7.61h0l2-7.61h3V190h-1.84v-9.12h0l-2.3,9.12h-1.63l-2.3-9.12h0V190Z" transform="translate(-166.85 -134.6)"/><path class="cls-2" d="M274.78,190V178.41h5.91v2h-3.75V183h2.86v2h-2.86V188h3.91v2Z" transform="translate(-166.85 -134.6)"/><path class="cls-2" d="M285.88,178.41h3c2.47,0,3.85,1.09,3.94,4V186c-.09,2.92-1.47,4-3.94,4h-3ZM288,188h.75c1.19,0,1.88-.58,1.88-2.31v-3.05c0-1.64-.53-2.31-1.88-2.31H288Z" transform="translate(-166.85 -134.6)"/><path class="cls-2" d="M298,190V178.41h2.16V190Z" transform="translate(-166.85 -134.6)"/><path class="cls-2" d="M304.73,190l2.8-11.59h2.77L313,190h-2.06l-.55-2.44h-3l-.61,2.44Zm3.08-4.4h2.14l-1-4.69h0Z" transform="translate(-166.85 -134.6)"/><path class="cls-2" d="M261.08,140.33H253.9v9.3h4.82V155H253.9v15.42h-5.2V135h12.38Z" transform="translate(-166.85 -134.6)"/><path class="cls-2" d="M274.42,170.78c-7,0-6.94-7.66-6.94-7.66V142.26s0-7.66,6.94-7.66,6.94,7.66,6.94,7.66v20.86S281.41,170.78,274.42,170.78Zm0-31.12c-1.83,0-1.73,2.6-1.73,2.6v20.86s-.1,2.6,1.73,2.6,1.73-2.6,1.73-2.6V142.26S276.25,139.65,274.42,139.65Z" transform="translate(-166.85 -134.6)"/><path class="cls-2" d="M289.5,135h5.2v30.59h6.89v4.82H289.5Z" transform="translate(-166.85 -134.6)"/><path class="cls-2" d="M314.94,170.78c-7,0-6.94-7.66-6.94-7.66V142.26s0-7.66,6.94-7.66,6.94,7.66,6.94,7.66v20.86S321.92,170.78,314.94,170.78Zm0-31.12c-1.83,0-1.73,2.6-1.73,2.6v20.86s-.1,2.6,1.73,2.6,1.73-2.6,1.73-2.6V142.26S316.77,139.65,314.94,139.65Z" transform="translate(-166.85 -134.6)"/></svg>